<?xml version="1.0" standalone="no"?>
<!DOCTYPE svg PUBLIC "-//W3C//DTD SVG 20010904//EN"
 "http://www.w3.org/TR/2001/REC-SVG-20010904/DTD/svg10.dtd">
<svg version="1.0" xmlns="http://www.w3.org/2000/svg"
 width="880.000000pt" height="953.000000pt" viewBox="0 0 880.000000 953.000000"
 preserveAspectRatio="xMidYMid meet">

<g transform="translate(0.000000,953.000000) scale(0.100000,-0.100000)"
fill="#000000" stroke="none">
<path d="M4220 8955 l0 -175 -1437 0 c-796 0 -1492 -5 -1558 -10 -230 -18
-407 -100 -561 -261 -100 -106 -159 -202 -228 -374 l-36 -89 0 -3066 0 -3066
36 -89 c69 -172 128 -268 228 -374 154 -161 331 -243 561 -261 66 -5 762 -10
1558 -10 l1437 0 0 -175 0 -175 175 0 175 0 0 175 0 175 1438 0 c790 0 1493 5
1562 10 233 17 408 102 572 279 113 122 200 294 229 454 15 87 27 2930 19
4542 -9 1659 -6 1577 -70 1743 -78 201 -241 382 -430 477 -106 53 -188 75
-320 85 -69 5 -772 10 -1562 10 l-1438 0 0 175 0 175 -175 0 -175 0 0 -175z
m0 -3975 l0 -3460 -1516 0 -1516 0 -95 46 c-79 38 -109 59 -177 127 -109 110
-135 160 -146 285 -14 160 -20 828 -26 3042 -7 2497 0 2910 52 3090 14 47 29
67 107 146 76 75 108 99 186 137 l93 47 1519 0 1519 0 0 -3460z m3478 3414
c78 -38 109 -60 176 -127 107 -107 134 -159 149 -285 17 -139 17 -5864 0
-6004 -15 -125 -42 -177 -149 -284 -66 -68 -97 -90 -175 -128 l-95 -46 -1517
0 -1517 0 0 3460 0 3460 1517 0 1517 0 94 -46z"/>
<path d="M1690 6435 l-115 -115 670 -670 670 -670 -670 -670 -670 -670 120
-120 c66 -66 124 -120 130 -120 5 0 366 356 800 791 l790 791 -790 784 c-434
431 -797 784 -805 784 -9 0 -67 -52 -130 -115z"/>
<path d="M6165 5765 l-790 -784 790 -790 c435 -435 795 -791 800 -791 6 0 64
54 130 120 l120 120 -670 670 -670 670 670 670 670 670 -115 115 c-63 63 -121
115 -130 115 -8 0 -370 -353 -805 -785z"/>
</g>
</svg>
