<?xml version="1.0" standalone="no"?>
<!DOCTYPE svg PUBLIC "-//W3C//DTD SVG 20010904//EN"
 "http://www.w3.org/TR/2001/REC-SVG-20010904/DTD/svg10.dtd">
<svg version="1.0" xmlns="http://www.w3.org/2000/svg"
 width="225.000000pt" height="225.000000pt" viewBox="0 0 225.000000 225.000000"
 preserveAspectRatio="xMidYMid meet">

<g transform="translate(0.000000,225.000000) scale(0.100000,-0.100000)"
fill="#000000" stroke="none">
<path d="M986 2210 c-19 -17 -40 -46 -46 -64 -23 -70 -82 -95 -221 -96 -80 0
-109 -14 -109 -54 0 -16 107 -279 151 -372 24 -51 76 -76 194 -94 119 -18 241
-2 332 42 46 23 63 54 63 117 0 62 27 166 69 271 45 110 48 127 27 155 -19 26
-71 23 -134 -9 -28 -14 -65 -26 -81 -26 -27 0 -34 7 -57 53 -39 78 -70 107
-116 107 -27 0 -46 -8 -72 -30z"/>
<path d="M1370 1465 c-113 -84 -402 -99 -555 -29 l-58 27 -56 -24 c-260 -107
-497 -369 -571 -631 -29 -102 -37 -271 -16 -367 54 -256 220 -374 586 -416
169 -20 692 -20 851 -1 220 28 363 79 461 166 55 48 113 156 128 239 15 80 12
266 -5 340 -53 223 -250 473 -484 615 -52 32 -219 106 -238 106 -5 0 -25 -11
-43 -25z m-230 -295 c0 -46 2 -50 23 -50 29 0 115 -29 123 -41 7 -12 -24 -119
-35 -119 -5 0 -28 7 -51 15 -98 34 -191 9 -176 -48 5 -22 25 -36 108 -77 148
-73 181 -110 182 -210 1 -88 -64 -175 -147 -195 -25 -7 -27 -11 -27 -61 l0
-54 -60 0 -60 0 0 50 c0 42 -3 50 -18 50 -28 0 -115 28 -136 43 -18 13 -18 16
-2 70 9 31 20 57 24 57 4 -1 32 -9 62 -20 85 -30 167 -24 192 14 14 20 8 63
-9 78 -10 9 -54 32 -97 52 -138 63 -176 106 -176 198 1 85 44 145 133 181 36
15 37 18 37 66 l0 51 55 0 55 0 0 -50z"/>
</g>
</svg>
