<?xml version="1.0" standalone="no"?>
<!DOCTYPE svg PUBLIC "-//W3C//DTD SVG 20010904//EN"
 "http://www.w3.org/TR/2001/REC-SVG-20010904/DTD/svg10.dtd">
<svg version="1.0" xmlns="http://www.w3.org/2000/svg"
 width="256.000000pt" height="256.000000pt" viewBox="0 0 256.000000 256.000000"
 preserveAspectRatio="xMidYMid meet">

<g transform="translate(0.000000,256.000000) scale(0.100000,-0.100000)"
fill="#000000" stroke="none">
<path d="M1160 2340 c-363 -44 -676 -266 -838 -593 -74 -152 -105 -288 -105
-467 0 -283 96 -526 288 -729 210 -221 472 -334 775 -334 283 0 526 96 729
288 221 210 334 472 334 775 0 148 -19 256 -70 385 -146 373 -481 630 -876
674 -106 12 -141 12 -237 1z m380 -248 c135 -44 238 -109 341 -211 102 -102
166 -205 211 -341 31 -92 32 -101 32 -260 0 -159 -1 -168 -32 -260 -45 -136
-109 -239 -211 -341 -102 -102 -205 -166 -341 -211 -91 -31 -101 -32 -260 -32
-161 -1 -167 0 -260 32 -143 50 -231 104 -336 207 -107 106 -169 205 -216 345
-31 92 -32 101 -32 260 0 159 1 168 32 260 45 136 109 239 211 341 98 97 204
165 321 204 118 39 155 44 305 41 125 -3 150 -7 235 -34z"/>
<path d="M1233 1694 c-50 -25 -63 -65 -63 -193 l0 -111 -111 0 c-129 0 -169
-13 -193 -65 -20 -41 -20 -49 0 -90 24 -52 64 -65 193 -65 l111 0 0 -111 c0
-129 13 -169 65 -193 41 -20 49 -20 90 0 52 24 65 64 65 193 l0 111 111 0
c129 0 169 13 193 65 9 18 16 38 16 45 0 7 -7 27 -16 45 -24 52 -64 65 -193
65 l-111 0 0 111 c0 129 -13 169 -65 193 -41 20 -52 20 -92 0z"/>
</g>
</svg>
